<svg width="220" height="219" viewBox="0 0 220 219" fill="none" xmlns="http://www.w3.org/2000/svg">
<path fill-rule="evenodd" clip-rule="evenodd" d="M8.04963 0L0 8.00211V9.41212L9.46801 0H8.04963ZM18.0498 0L0 17.9433V19.3533L19.4682 0H18.0498ZM28.05 0L0 27.8844V29.2944L29.4684 0H28.05ZM38.0497 0L0 37.8251V39.2351L39.4681 0H38.0497ZM48.0499 0L0 47.7662V49.1762L49.4682 0H48.0499ZM58.05 0L0 57.7073V59.1173L59.4684 0H58.05ZM68.0497 0L0 67.648V69.058L69.4681 0H68.0497ZM78.0499 0L0 77.5891V78.9991L79.4683 0H78.0499ZM88.0501 0L0 87.5303V88.9403L89.4684 0H88.0501ZM98.0497 0L0 97.4709V98.8809L99.4681 0H98.0497ZM108.05 0L0 107.412V108.822L109.468 0H108.05ZM118.05 0L0 117.353V118.763L119.468 0H118.05ZM128.05 0L0 127.294V128.704L129.468 0H128.05ZM138.05 0L0 137.235V138.645L139.468 0H138.05ZM148.05 0L0 147.176V148.586L149.468 0H148.05ZM158.05 0L0 157.117V158.527L159.468 0H158.05ZM168.05 0L0 167.058V168.468L169.468 0H168.05ZM178.05 0L0 176.999V178.409L179.468 0H178.05ZM188.05 0L0 186.94V188.35L189.468 0H188.05ZM198.05 0L0 196.881V198.291L199.468 0H198.05ZM208.05 0L0 206.822V208.232L209.468 0H208.05ZM218.05 0L0 216.763V218.173L219.468 0H218.05Z" fill="black"/>
</svg>
