<svg width="90" height="90" viewBox="0 0 90 90" fill="none" xmlns="http://www.w3.org/2000/svg">
<rect x="32.5269" y="44.5479" width="17" height="17" transform="rotate(-45 32.5269 44.5479)" fill="black"/>
<rect x="23.3345" y="46.6689" width="3" height="27" transform="rotate(-45 23.3345 46.6689)" fill="black"/>
<rect x="25.4558" y="44.5479" width="3" height="27" transform="rotate(-135 25.4558 44.5479)" fill="black"/>
<rect x="44.5476" y="25.4561" width="3" height="27" transform="rotate(-45 44.5476 25.4561)" fill="black"/>
<rect x="46.6689" y="65.7612" width="3" height="27" transform="rotate(-135 46.6689 65.7612)" fill="black"/>
<rect x="45.9619" y="7.07129" width="4" height="51" transform="rotate(-45 45.9619 7.07129)" fill="black"/>
<rect x="45.9619" y="7.07129" width="4" height="51" transform="rotate(-45 45.9619 7.07129)" fill="black"/>
<rect x="4.24268" y="48.7905" width="4" height="51" transform="rotate(-45 4.24268 48.7905)" fill="black"/>
<rect x="4.24268" y="48.7905" width="4" height="51" transform="rotate(-45 4.24268 48.7905)" fill="black"/>
<rect x="7.07104" y="43.1338" width="4" height="51" transform="rotate(-135 7.07104 43.1338)" fill="black"/>
<rect x="7.07104" y="43.1338" width="4" height="51" transform="rotate(-135 7.07104 43.1338)" fill="black"/>
<rect x="48.7903" y="84.853" width="4" height="51" transform="rotate(-135 48.7903 84.853)" fill="black"/>
<rect x="48.7903" y="84.853" width="4" height="51" transform="rotate(-135 48.7903 84.853)" fill="black"/>
</svg>
