<svg width="220" height="219" viewBox="0 0 220 219" fill="none" xmlns="http://www.w3.org/2000/svg">
<path fill-rule="evenodd" clip-rule="evenodd" d="M211.419 0L219.468 8.00211V9.41212L210 0H211.419ZM201.418 0L219.468 17.9433V19.3533L200 0H201.418ZM191.418 0L219.468 27.8844V29.2944L190 0H191.418ZM181.419 0L219.468 37.8251V39.2351L180 0H181.419ZM171.418 0L219.468 47.7662V49.1762L170 0H171.418ZM161.418 0L219.468 57.7073V59.1173L160 0H161.418ZM151.419 0L219.468 67.648V69.058L150 0H151.419ZM141.418 0L219.468 77.5891V78.9991L140 0H141.418ZM131.418 0L219.468 87.5303V88.9403L130 0H131.418ZM121.419 0L219.468 97.4709V98.8809L120 0H121.419ZM111.418 0L219.468 107.412V108.822L110 0H111.418ZM101.419 0L219.468 117.353V118.763L100 0H101.419ZM91.4185 0L219.468 127.294V128.704L90.0001 0H91.4185ZM81.4183 0L219.468 137.235V138.645L79.9999 0H81.4183ZM71.4186 0L219.468 147.176V148.586L70.0002 0H71.4186ZM61.4184 0L219.468 157.117V158.527L60.0001 0H61.4184ZM51.4183 0L219.468 167.058V168.468L49.9999 0H51.4183ZM41.4186 0L219.468 176.999V178.409L40.0002 0H41.4186ZM31.4184 0L219.468 186.94V188.35L30 0H31.4184ZM21.4182 0L219.468 196.881V198.291L19.9998 0H21.4182ZM11.4185 0L219.468 206.822V208.232L10.0002 0H11.4185ZM1.41837 0L219.468 216.763V218.173L-3.05176e-05 0H1.41837Z" fill="black"/>
</svg>
